<?xml version="1.0" standalone="no"?>
<!DOCTYPE svg PUBLIC "-//W3C//DTD SVG 20010904//EN"
 "http://www.w3.org/TR/2001/REC-SVG-20010904/DTD/svg10.dtd">
<svg version="1.0" xmlns="http://www.w3.org/2000/svg"
 width="70.000000pt" height="70.000000pt" viewBox="0 0 70.000000 70.000000"
 preserveAspectRatio="xMidYMid meet">
<metadata>
Created by potrace 1.11, written by Peter Selinger 2001-2013
</metadata>
<g transform="translate(0.000000,70.000000) scale(0.100000,-0.100000)"
fill="#000000" stroke="none">
<path d="M0 350 l0 -350 350 0 350 0 0 350 0 350 -350 0 -350 0 0 -350z m680
5 l0 -325 -327 2 -328 3 -3 323 -2 322 330 0 330 0 0 -325z"/>
<path d="M185 548 c-41 -24 -44 -38 -44 -198 0 -162 3 -175 46 -198 33 -18 69
-14 98 11 21 18 27 32 28 72 2 40 -1 50 -15 53 -14 3 -18 -3 -18 -30 0 -64
-48 -99 -84 -62 -13 12 -16 41 -16 153 0 121 2 140 18 154 10 10 26 17 35 17
22 0 47 -38 47 -72 0 -18 5 -28 14 -28 23 0 28 17 21 61 -11 62 -78 97 -130
67z"/>
<path d="M543 548 c-6 -7 -13 -26 -16 -43 -3 -16 -16 -84 -28 -150 -12 -66
-25 -124 -30 -129 -8 -9 -10 -2 -29 109 -6 39 -15 90 -20 115 -5 25 -12 57
-15 73 -4 19 -11 27 -26 27 -17 0 -20 -5 -15 -27 2 -16 15 -82 27 -148 40
-219 43 -230 68 -233 13 -2 27 0 33 6 8 8 41 170 69 336 10 60 2 89 -18 64z"/>
</g>
</svg>
